<svg xmlns="http://www.w3.org/2000/svg" width="319" height="319" fill="none" viewBox="0 0 319 319"><circle cx="159.5" cy="159.5" r="159.5" fill="#F5F6FA"/><path fill="#000" d="M150.983 106.682H79.4414L118.774 65.0645L150.983 106.682Z"/><path fill="#242729" d="M150.983 106.682H79.4414L118.774 65.0645L150.983 106.682Z"/><path fill="#000" d="M118.285 115.624H76L151.669 279L118.285 115.624Z"/><path fill="#242729" d="M118.285 115.624H76L151.669 279L118.285 115.624Z"/><path fill="#000" d="M192.944 115.625H127.25L160.246 275.561L192.944 115.625Z"/><path fill="#242729" d="M192.944 115.625H127.25L160.246 275.561L192.944 115.625Z"/><path fill="#000" d="M201.907 115.625H244.192L168.523 279.001L201.907 115.625Z"/><path fill="#242729" d="M201.907 115.625H244.192L168.523 279.001L201.907 115.625Z"/><path fill="#000" d="M128.28 63.0003L191.566 63.0003L160.294 104.618L128.28 63.0003Z"/><path fill="#242729" d="M128.28 63.0003L191.566 63.0003L160.294 104.618L128.28 63.0003Z"/><path fill="#000" d="M240.752 106.681H169.211L201.419 65.0635L240.752 106.681Z"/><path fill="#242729" d="M240.752 106.681H169.211L201.419 65.0635L240.752 106.681Z"/></svg>