<svg xmlns="http://www.w3.org/2000/svg" width="319" height="319" fill="none" viewBox="0 0 319 319"><circle cx="159.5" cy="159.5" r="159.5" fill="#2E3234"/><rect width="22" height="22" x="42" y="93" fill="#E84970" rx="5"/><rect width="22" height="22" x="179" y="93" fill="#242729" rx="5"/><rect width="22" height="22" x="42" y="130" fill="#242729" rx="5"/><rect width="22" height="22" x="179" y="130" fill="#E84970" rx="5"/><rect width="22" height="22" x="42" y="167" fill="#E84970" rx="5"/><rect width="22" height="22" x="179" y="167" fill="#242729" rx="5"/><rect width="22" height="22" x="42" y="204" fill="#242729" rx="5"/><rect width="22" height="22" x="179" y="204" fill="#E84970" rx="5"/><rect width="62" height="22" x="79" y="93" fill="#E84970" rx="5"/><rect width="62" height="22" x="216" y="93" fill="#242729" rx="5"/><rect width="62" height="22" x="79" y="130" fill="#242729" rx="5"/><rect width="62" height="22" x="216" y="130" fill="#E84970" rx="5"/><rect width="62" height="22" x="79" y="167" fill="#E84970" rx="5"/><rect width="62" height="22" x="216" y="167" fill="#242729" rx="5"/><rect width="62" height="22" x="79" y="204" fill="#242729" rx="5"/><rect width="62" height="22" x="216" y="204" fill="#E84970" rx="5"/></svg>