<svg xmlns="http://www.w3.org/2000/svg" width="78" height="76" fill="none" viewBox="0 0 78 76"><path fill="#FAEDF0" d="M19.7883 59.463L11.1582 20.1479C28.2587 19.5086 63.2267 18.6137 66.2952 20.1479C69.3637 21.6822 60.5418 49.874 55.7473 63.7781L51.9116 69.5315L41.3637 71.4493H26.0212L19.7883 59.463Z"/><path stroke="#E84970" stroke-width="5" d="M12.6641 19.7383L21.7574 62.9317C24.0308 70.4013 29.5517 72.9994 39.9441 72.9994C48.3953 72.9994 55.6459 70.4925 57.8061 62.9317C59.9663 55.371 64.3013 30.8885 65.9252 19.7383"/><path stroke="#E84970" stroke-width="5" d="M21.7582 19.7271C19.4831 11.6112 27.6708 3.26758 38.8426 3.00777C50.0144 2.74796 57.4828 9.01982 57.4817 19.4024"/><rect width="77.943" height="5.196" y="16.816" fill="#E84970" rx="2.598"/><rect width="77.943" height="5.196" y="16.816" stroke="#E84970" rx="2.598"/><rect width="33.173" height="4.415" x="30.243" y="28.303" fill="#E84970" stroke="#E84970" rx="2.207" transform="rotate(78.8213 30.2432 28.3032)"/><rect width="33.173" height="4.415" x="53.452" y="29.097" fill="#E84970" stroke="#E84970" rx="2.207" transform="rotate(100.294 53.4524 29.0974)"/></svg>