<svg xmlns="http://www.w3.org/2000/svg" width="78" height="76" fill="none" viewBox="0 0 78 76"><path stroke="#E84970" stroke-width="5" d="M12.6641 19.7393L21.7574 62.9327C24.0308 70.4022 29.5517 73.0004 39.9441 73.0004C48.3953 73.0004 55.6459 70.4934 57.8061 62.9327C59.9663 55.372 64.3013 30.8894 65.9252 19.7393"/><path stroke="#E84970" stroke-width="5" d="M21.7582 19.7271C19.4831 11.6112 27.6708 3.26758 38.8426 3.00777C50.0144 2.74796 57.4828 9.01982 57.4817 19.4024"/><rect width="77.943" height="5.196" y="16.816" fill="#E84970" rx="2.598"/><rect width="77.943" height="5.196" y="16.816" stroke="#E84970" rx="2.598"/><rect width="33.173" height="4.415" x="30.243" y="28.303" fill="#E84970" stroke="#E84970" rx="2.207" transform="rotate(78.8213 30.2432 28.3032)"/><rect width="33.173" height="4.415" x="53.452" y="29.098" fill="#E84970" stroke="#E84970" rx="2.207" transform="rotate(100.294 53.4524 29.0984)"/></svg>